<svg id="Layer_1" data-name="Layer 1" xmlns="http://www.w3.org/2000/svg" viewBox="0 0 733.11 239.9"><defs><style>.cls-1{font-size:142.07px;font-family:Arial-Black, Arial;font-weight:800;}.cls-1,.cls-3{fill:#fff;}.cls-2{letter-spacing:-0.01em;}.cls-3{font-size:60.8px;font-family:KozGoPr6N-Medium-90ms-RKSJ-H, Kozuka Gothic Pr6N;}.cls-4{letter-spacing:-0.06em;}.cls-5{letter-spacing:-0.04em;}</style></defs><title>Kanavas</title><text class="cls-1" transform="translate(0 158.43)">KA<tspan class="cls-2" x="228.86" y="0">N</tspan><tspan x="345.82" y="0" xml:space="preserve">A  </tspan></text><text class="cls-1" transform="translate(520 158.43)">AS</text><text class="cls-3" transform="translate(6.46 217.16)">仮名<tspan class="cls-4" x="121.59" y="0">バ</tspan><tspan class="cls-5" x="178.74" y="0">ス</tspan></text><path d="M468.11,7.78c0,.44.2.82.44.9s.36.18-.06.42c-.26.15-.36.38-.26.57a5.66,5.66,0,0,1,.34,1.5c.13,1,.08,1.27-.31,1.5-.57.36-.39.8.34.8.26,0,.49.1.49.26s-.16.26-.36.26c-.42,0-.68.54-.68,1.45,0,.67.24.8.68.36.18-.18.64-.21,1.34-.05,1,.23,1.06.21.83-.21s-.31-.93-.67-4.27a4.48,4.48,0,0,0-.86-2.46,2.77,2.77,0,0,1-.59-1.34c.05-.29-.08-.47-.31-.47S468.11,7.26,468.11,7.78Z" transform="translate(-8 -7)"/><path d="M474.81,11.74c-.18.18-.18.44,0,.77a1,1,0,0,1,0,1.06,42.23,42.23,0,0,0-.8,7.1c0,.52-.13.9-.39,1a.62.62,0,0,0-.39.49.6.6,0,0,1-.26.52c-.15.1-.26-.36-.26-1.16,0-1.12.08-1.38.52-1.48.67-.18.7-1.11,0-1.11a.64.64,0,0,0-.62.44c-.08.26-.13.07-.16-.39,0-.65-.13-.83-.54-.83s-.52.18-.52.39-.23.39-.52.39-.52.13-.52.28-.1.21-.26.11a.44.44,0,0,1-.1-.5.61.61,0,0,0-.23-.64c-.29-.24-.44-.21-.73.15s-.28.44,0,.52.31.54.31,1.14.08,1,.2,1c.29,0,.06,2.41-.28,2.79s-.7-.07-.7-1.19c0-.95-.7-2.79-1-2.53s-.28,1.19,0,1.34.23,1.4-.18,1.4a.4.4,0,0,1-.39-.39c0-.21-.23-.39-.52-.39-.57,0-.62.29-.36,1.87.1.59.31,1,.52,1s.36.29.36.65a.89.89,0,0,0,.39.8.84.84,0,0,1,.15,1.29,2.55,2.55,0,0,0-.41.86c-.16.54-.13.59.33.49s.52-.1.21.41-.52,5.75-.18,6a4.75,4.75,0,0,1,.05,1.58c-.05,1-.15,1.37-.28,1.14s-.31-.26-.42-.16,0,.42.29.7.39.6.31.7-.36-.05-.55-.34c-.46-.62-.8-.33-.44.36.24.44.19.5-.44.39s-.67-.07-.23.29a2.51,2.51,0,0,1,.62,1.42c.13,1,.08,1.06-.41,1.06-.31,0-.54-.15-.54-.39s-.11-.38-.24-.38-.28-.26-.33-.6-.24-.57-.65-.54-.6-.13-.6-.31.16-.29.37-.21a.4.4,0,0,0,.51-.13c.29-.44-.13-1.58-.59-1.58s-.34,0-.05-.23a.6.6,0,0,0-.37-1.06.4.4,0,0,1-.38-.39c0-.21-.24-.39-.52-.39-.57,0-.68.52-.24,1.32a6.33,6.33,0,0,1,.32,1.79,4.45,4.45,0,0,0,.25,1.45,1.37,1.37,0,0,1,.19.8c0,.39.15.59.46.59s0,.24-.52.52a3.73,3.73,0,0,0-1.16.88,1.32,1.32,0,0,1-.6.49c-.28.11-.23.16.16.16s.54.21.54,1.16-.1,1.27-.59,1.69a1.82,1.82,0,0,0-.62.85c0,.23.1.23.33-.05a4.21,4.21,0,0,1,1.06-.78c.68-.33.75-.33,1.09.13s.29.52-.54.86-1.27,1-.42.75a1.21,1.21,0,0,1,.83.1c.31.18.31.23,0,.23s-.31.24-.15,1a3.5,3.5,0,0,0,.44,1.29.6.6,0,0,1,.1.57c-.1.13,0,.37.26.5s.36.26,0,.38-.36.5-.33,1.32c0,.65-.05,1.2-.16,1.2s-.2-.37-.2-.81-.11-.72-.26-.62-.26-.15-.26-.62c0-.93-.93-1.66-1.19-.93a1.43,1.43,0,0,0,.13,1.06c.31.72.38,3.88.1,4.06s-.23-.44-.28-1.14a8.47,8.47,0,0,0-.32-1.94,4.67,4.67,0,0,1-.25-1.5,5,5,0,0,0-.37-1.73,3.22,3.22,0,0,1-.23-1.56c.13-.75-.47-1.42-1.09-1.16-.33.13-.33.23-.07.67s.25.57,0,.83-.32.16-.32-.39c0-.39-.1-.7-.25-.7s-.26-.57-.26-1.26-.11-1.38-.26-1.45c-.39-.24-.34-2,.08-1.87.18,0,.31.52.31,1.09s.13,1,.31,1.09c.49.18.72-.68.41-1.45a3,3,0,0,1-.05-1.43,1,1,0,0,0-.18-1.14,5.09,5.09,0,0,1-.78-1c-.26-.36-.54-.54-.8-.44s-.36.21,0,.47a.64.64,0,0,1,.25.75c-.15.41-.18.39-.49,0-.41-.62-.75-2.41-.41-2.41.13,0,.31-.46.41-1.06.21-1.27-.13-1.81-.77-1.16s-.91.52-.91-.18a2.22,2.22,0,0,0-.39-1.12c-.52-.67-.49-.88.13-.88s.7-.85.1-2-.93-1-.72.52l.18,1.37-.52-.54a6.49,6.49,0,0,1-1-1.55c-.54-1.19-1.29-1.92-2-1.92-.29,0-.47.08-.42.18.62,1.27.83,1.63,1,1.63s.2.16.2.34.24.47.55.65.46.41.39.49.1.59.36,1.14a5.26,5.26,0,0,1,.52,2c0,.57.13,1,.26,1s.25.28.25.65.16.64.39.64.31.16.24.39a1.14,1.14,0,0,0,0,.83,9.18,9.18,0,0,1,.29,1.94c.13,1.89.46,2.74,1.24,3,.46.21.57.39.49.91a2.93,2.93,0,0,0,.13,1.42c.23.67.21.75-.36.88s-.86-.18-.34-.49a.21.21,0,0,0,.08-.34A2.38,2.38,0,0,1,456,48a.91.91,0,0,0-.65-.52c-.57,0-.41.75.24,1s.72.64.05.82c-.29.08-.52.29-.52.47,0,.49.78,1.94,1,1.94s.15.26,0,.62c-.29.78-.06,1.71.44,1.71.28,0,.36.16.23.57a5.61,5.61,0,0,0-.16,1c0,.28-.25.41-.77.44s-.78-.1-.78-.49-.13-.49-.28-.49a.93.93,0,0,1-.62-.44c-.21-.29-.37-.34-.5-.13s-.07.31.06.31.12.26,0,.64c-.36.78-.7.83-.7.13a.76.76,0,0,0-.39-.67.73.73,0,0,1-.39-.62.78.78,0,0,0-.23-.62c-.13-.08-.18-.39-.1-.65a1.79,1.79,0,0,0-.21-1.09c-.78-1.39-1.27-4.11-.72-4.11.15,0,.2.23.1.52a1.26,1.26,0,0,0,1.16,1.5c.6,0,.65,0,.62-.83-.05-1-.85-3-1.21-3-.13,0-.18.44-.11.95s.08.78,0,.52-.31-.44-.8-.39-.7,0-.75-.57c0-.36,0-.49.08-.33s.23.26.52,0c.49-.49.46-.9-.08-1.53s-.44-.51.1-.23.57.23.7-.1a.89.89,0,0,0-.23-.8c-.31-.31-.49-.34-.78-.08s-.39.21-.39,0a.4.4,0,0,1,.31-.36c.24-.08.24-.34.06-1s-.37-.88-1.22-.93-1,0-1,.44a.44.44,0,0,1-.46.49c-.78,0-.83.26-.26,1.07.49.64.59.69.85.31a.49.49,0,0,1,.91.28,1.05,1.05,0,0,0,.39.67c.44.37.51.78.13.78-.13,0-.26-.18-.26-.39,0-.52-1.3-.83-1.58-.36a2.85,2.85,0,0,0,.39,2.36c.15.1.2.23.13.31A6.34,6.34,0,0,1,446.7,46c-.91-.77-1.58-1.16-1.63-1-.16.44.8,2.33,1.16,2.33.18,0,.26.18.18.39a.82.82,0,0,0,.16.78,2.91,2.91,0,0,1,.34,1.45c0,.64.12,1.11.33,1.19s.36.51.36,1a1.63,1.63,0,0,0,.26,1c.16.07.26.38.26.67a.45.45,0,0,0,.49.49c.55,0,1,1.27.57,1.53s-.07,1.24.39,1.42a.41.41,0,0,1,.21.54c-.21.55-.88,0-.88-.67,0-.28-.08-.49-.21-.49s-.41-.44-.7-1a6.56,6.56,0,0,0-.67-1.09c-.29-.26-.47-1-.23-1s.31-.85-.11-1.42a1.15,1.15,0,0,1-.26-.78c.08-.15-.1-.51-.41-.77a1.53,1.53,0,0,1-.52-.83c0-.55-.67-.39-1,.23l-.29.6V50c0-.36-.18-.57-.49-.57a1.54,1.54,0,0,1-1-.52,1.48,1.48,0,0,0-.88-.51c-.25,0-.31.07-.13.2a6.46,6.46,0,0,1,.83,1.27c.47.91.5,1.11.18,1.11a.37.37,0,0,1-.38-.36c0-.41-.68-1.19-1.07-1.19-.12,0-.23.23-.23.52s.13.52.26.52.26.2.26.49a1.53,1.53,0,0,0,.67.93c.57.36.65.6.6,1.5-.08,1.53,0,1.74.39,1.74.62,0,.75-.52.26-.94s-.47-.38,0-.25a4.21,4.21,0,0,0,.72.15.27.27,0,0,1,.24.29,1.41,1.41,0,0,0,1,1c.15,0,.28-.37.28-.78s.13-.78.26-.78.26.29.26.65.1.65.23.65.31.28.39.64.28.65.41.65.26.29.26.65.16.65.34.65.31.36.34.9-.08.83-.21.75a1,1,0,0,1-.21-.65.45.45,0,0,0-.41-.49c-.34,0-.39.16-.24.7a1.22,1.22,0,0,0,.42.8c.13.06.23.34.23.63s.13.46.34.38a.61.61,0,0,0,.28-.54c-.05-.62.24-.49.62.28.42,1,.39,1.12-.2,1.12s-.65.39,0,1.24a1.55,1.55,0,0,1,.39,1.24,1.07,1.07,0,0,0,.23,1,1.22,1.22,0,0,1,.39.64.29.29,0,0,0,.26.29.23.23,0,0,1,.26.23c0,.54-1-.08-1.27-.83-.85-2.12-1.42-3.08-2-3.34-.34-.15-.6-.41-.57-.57.1-.44-1.53-2-1.86-1.83a.45.45,0,0,0-.16.54c.08.21,0,.36-.1.36s-.26-.18-.26-.39a.44.44,0,0,0-.31-.41c-.18,0,.05-.13.52-.26s.82-.34.77-.44-.44-.9-.85-1.81c-.65-1.42-.83-1.63-1.35-1.53s-.59,0-.59-.23-.13-.36-.26-.36-.24-.08-.24-.21a3.21,3.21,0,0,0,0-.78c0-.8-.9-.75-1.26.08-.26.54-.24.7.2,1s.52.44.52.57-.18.08-.39-.11-.46-.28-.72,0-.21.39.18.7a2,2,0,0,0,.93.36,1.28,1.28,0,0,1,.8.47c.39.44.37.49-.33.8-.39.18-.73.49-.73.7s-.1.36-.26.36-.36.21-.49.49-.15.54.49.86c1,.49.68,1.13-.39.72-.88-.34-1.06-.21-.51.34.2.23.39.46.39.57,0,.51,3.18,4,3.62,4,.15,0,.26.23.26.49a.83.83,0,0,0,.26.67.4.4,0,0,1,.07.52c-.07.21,0,.39.16.39s.28.23.28.52c0,.64-.46.67-.69,0a1.86,1.86,0,0,0-.37-.57,17.5,17.5,0,0,1-1.65-2.74,1.8,1.8,0,0,0-1.06-1c-.65-.11-1.22.36-.68.54s.36.83-.18.83-.49,0-.15.7.31.75.05.9,0,.21.54.21.83-.13.83-.26c0-.44.44-.28.62.18a4.44,4.44,0,0,0,.36.86c.94,1.58,1,2.22.18,1.55-.31-.26-.49-.26-.69-.05s-.19.34.12.47a.62.62,0,0,1,.44.51c0,.21.13.37.26.37s.26.15.26.36a.67.67,0,0,0,.39.52.7.7,0,0,1,.39.64.78.78,0,0,0,.39.65.85.85,0,0,1,.39.75,2.11,2.11,0,0,0,.54,1.19,9.57,9.57,0,0,1,1.79,3.29c0,.18.12.36.25.36s.26.21.26.44a16.19,16.19,0,0,0,1.06,3.5,2.29,2.29,0,0,1,.24.85c0,.21.13.39.26.39s.26.28.26.62a3.69,3.69,0,0,0,.38,1.35,3.71,3.71,0,0,1,.39,1.39,2.37,2.37,0,0,0,.36,1.17,5.59,5.59,0,0,1,.52,1.94c.23,1.89.93,3.39,1.48,3.21.31-.08.49.08.59.54s.29.65.42.65.26.34.26.78.1.77.23.77.31.49.39,1.09c.39,2.93.49,3.47.7,3.7a5.5,5.5,0,0,1,.23,2c0,1,.1,1.77.26,1.77s.26.72.26,1.68a6.26,6.26,0,0,0,.26,2.15,19.7,19.7,0,0,1,.41,3.46,10.13,10.13,0,0,0,.39,3.06,12.21,12.21,0,0,1,.23,3.34c0,2.2.1,3.42.29,3.54s.25.78.18,2a4.09,4.09,0,0,0,.07,1.78c.13,0,.24.34.24.78s-.11.72-.39.62-.39,0-.34.65c0,.44.21.8.39.8s.34.31.34.78-.13.77-.39.77c-.52,0-.49.52.08.93.41.32.41.34-.11.37-.75,0-1,1.37-.49,2.15a2.28,2.28,0,0,1,.39,1,.71.71,0,0,0,.39.6c.85.33.33.64-.78.46s-1.16-.13-1,.31a1.29,1.29,0,0,0,.52.7c.18.13.28.31.2.47s0,.23.24.23.41.1.41.26.23.26.54.26.49.1.37.44c-.42,1-.47,1.94-.11,2.2s-.46.18-1.94-.21c-.57-.13-.67-.08-.67.39s.15.54.52.54.44.13.36.37.08.33.52.33c1.26,0,2,1.17.93,1.5-.29.08-.52.29-.52.44s.18.21.39.11.39.05.39.54c0,.83-1.25,2-1.71,1.61-.21-.19-.39-.16-.49.05s-.55.23-1.07.15c-.85-.15-.88-.13-.88.7,0,.62.16.93.6,1.14s.34.29-.91.29c-.8,0-1.55.12-1.63.28a1.31,1.31,0,0,1-.9.26,1.34,1.34,0,0,0-.91.26c-.26.41.42,1.08,1,1,.26-.08.46-.06.46.07s.26.21.6.21a29.26,29.26,0,0,1,5.15.52c.08.1,0,.33-.21.52s-.36.23-.36.1a8.92,8.92,0,0,0-2.59-.26c-2,0-2.59.05-2.59.31s.44.39,1.2.49a3,3,0,0,1,1.6.55c.29.26.31.41.1.41s-.31.29-.31.65c0,.83.7.85,1,.05.21-.52.23-.52.23-.05a1.37,1.37,0,0,0,.57.85c.42.26.49.42.26.65s-.36.23-.49,0-.91-.41-3.29-.38c-1,0-2.12,0-2.51,0s-.72.13-.72.49.18.5,2,.5c1.48,0,2.07.1,2.38.41s.34.41-.51.41a1.74,1.74,0,0,0-1.14.29c-.31.49.39.85,1.58.78.72,0,1.16.05,1.16.23s-.21.26-.44.23c-.78-.13-1.94.29-1.81.62s.54.29,1.47.21l1.4-.08-.41.62a4.86,4.86,0,0,0-.6,1.61c-.1.54-.33.93-.54.93-.47,0-.47.36,0,.75.26.21.41.23.54,0a.74.74,0,0,1,.6-.24c.33,0,.31.08-.13.29-.7.34-.78,1-.13,1,.36,0,.36.05-.08.23-.72.31-.9.31-.83,0,0-.16-.15-.36-.38-.41s-.47,0-.47.31.13.41.26.41.26.23.26.54-.11.5-.5.37c-.95-.29-.85.38.11.8s.93.41.52.88a2.66,2.66,0,0,1-.94.65c-.28.1-.49.33-.49.51,0,.47-.23.6-1.32.78s-1,.18-1.08.93a1.44,1.44,0,0,1-.42.91.82.82,0,0,0-.23.83c.13.49,0,.54-.8.49s-.94,0-.91.41c0,.23-.05.47-.18.47l-.55.08c-.18,0-.38.36-.46.8s-.31.77-.52.8c-.9,0-1,.13-1,.49s.59.49,1.32.13,1-.13.85.39-3.62,1.55-3.88,1.14a.85.85,0,0,0-.65-.23c-.75,0-.6.75.23.93.39.08.91.2,1.17.28s.44,0,.44-.15,1.55.44,1.86.88,0,.49-.52.05a1.67,1.67,0,0,0-.64-.44c-.29,0-.21.75.13,1.29s.23.57-.31,1a2,2,0,0,1-1.09.39c-.26,0-.47.05-.47.18a.29.29,0,0,0,.26.29c.16,0-.18.49-.78,1.08-1,1.09-1.24,1.61-.77,1.89s.31.65-.13.65c-.21,0-.39.1-.39.26s-.21.23-.44.21c-1.35-.11-2.41.07-2.41.41,0,.54,2.93.39,3.5-.18s1.42-.6,1.42-.18a.26.26,0,0,1-.26.26c-.13,0-.33.31-.41.67-.16.57-.29.65-.91.52-.41-.08-.75,0-.75.1s.16.26.36.26.34.1.08.57c-.67,1.24-1.09,1.76-1.45,1.76s-.31.21-.2.7-.06.88-.7,1.5a7,7,0,0,0-1.19,1.5,2.52,2.52,0,0,1-.83,1,.85.85,0,0,0-.47.63.54.54,0,0,1-.31.46c-.26.1-.23.16,0,.16s.13.23-.29.59c-1.19,1.09-1.76,1.5-2,1.5a.41.41,0,0,0-.34.18,9.23,9.23,0,0,1-1.63,1.38,13.37,13.37,0,0,0-2,1.68c-1.66,1.91-1.63,1.86-1.27,2.43.13.21.41.29.78.16s.51-.08.38.23-.25.41-.38.41a8.94,8.94,0,0,0-2.7,2.59,1,1,0,0,1-.59.62c-.8.26-2.12,1.58-2.12,2.13a1.29,1.29,0,0,1-.31.82c-.24.24-.21.32.13.32s.44-.16.44-.34.31-.54.69-.8c.73-.55.65-.31-.36,1-.54.73-.57,1.14-.05,1.14a7,7,0,0,0,1.24-1.09c1.19-1.24,1.45-2.17.52-1.89-.49.16-.52.13-.21-.18a.51.51,0,0,1,.81-.1.8.8,0,0,0,1,0c.41-.28.47-.26.36,0a.46.46,0,0,0,.13.54.57.57,0,0,1,.29.44c0,.18-.13.16-.39,0s-.47-.23-.6-.15c-.36.2-.05,1.45.36,1.45a3.19,3.19,0,0,0,1.69-.86c.07-.13.23-.05.31.16s-.65,1.21-1.12,1.21c-.15,0-.25.21-.25.5,0,.49-1.43,2.14-1.63,1.91s-1.22.88-1.22,1.19c0,.13-.34.31-.78.42s-.77.33-.77.51a.94.94,0,0,1-.52.65c-.44.23-.52.21-.52-.26a.47.47,0,0,0-.52-.52c-.28,0-.52.18-.52.39a.63.63,0,0,1-.38.55c-.68.25-.44.88.33.88.6,0,.62,0,.26.28-.59.34-.59,1,0,1a3.24,3.24,0,0,0,1.29-.54c.5-.29.88-.42.88-.26,0,.36,1,.36,1.17,0a.64.64,0,0,0-.13-.64c-.26-.31-.23-.39.08-.39s1.19-.7,2.25-2.07a11.35,11.35,0,0,1,1.11-1.27,1.27,1.27,0,0,0,.44-.67,6.25,6.25,0,0,1,2.07-2.2c.16,0,.24.1.16.23s0,.28.13.34-.18.59-.78,1.19a4.1,4.1,0,0,0-1.06,1.45.6.6,0,0,1-.36.49c-.44.18-2,2.38-1.81,2.59s2.17-1.79,2.17-2.23a.41.41,0,0,1,.39-.44c.21,0,.39-.08.39-.21a5.57,5.57,0,0,1,.9-1.19,5.31,5.31,0,0,0,.91-1.24c0-.13.28-.34.62-.49a2.47,2.47,0,0,0,1-.91c.39-.78.7-.8.8-.05s.49.83,1.11.28c1.17-1,3.34-1.63,3.78-1a.58.58,0,0,0,.6,0c.31-.12.41-.36.33-.77s0-.62.24-.62a2.14,2.14,0,0,0,.67-.13.85.85,0,0,1,.7.1c.31.21.31.31-.05.67a1.31,1.31,0,0,0-.44.7c0,.42,1.58,0,2.2-.57a1.92,1.92,0,0,1,1.06-.51,2.19,2.19,0,0,0,1-.39c.65-.49.88-.49.88,0,0,.2.13.39.29.39a3,3,0,0,0,1.68-1c.39-.52,1.87-.18,2,.47.08.44.13.44,1.14,0a8,8,0,0,0,1.6-1,1.9,1.9,0,0,1,1-.51,2.44,2.44,0,0,0,1-.39,1.32,1.32,0,0,1,1-.24,1.14,1.14,0,0,0,1-.46,11,11,0,0,1,1.11-.91c.29-.15.49-.39.47-.54s.26-.18.62-.11c.57.11.65.06.54-.41a.51.51,0,0,1,.21-.67c.23-.08.28,0,.18.28s0,.39.31.26a.71.71,0,0,1,1,.86c-.11.41,0,.51.51.51a1.1,1.1,0,0,0,.93-.46c.16-.24.29-.29.29-.13a.38.38,0,0,0,.41.33c.6,0,.34-.85-.36-1.16s-.75-1.17,0-1.17a1.1,1.1,0,0,0,1-.62c.28-.54,1.24-1.06,1.5-.82,0,.05-.26.46-.7.9-.86.86-1.06,1.84-.42,1.84A5,5,0,0,0,468,202a1.27,1.27,0,0,1,.67-.31,2.28,2.28,0,0,0,.91-.39c.52-.36.57-.36.75.18.1.34.05.62-.13.67a.56.56,0,0,0,0,1,4.67,4.67,0,0,0,1.89-.91,9.48,9.48,0,0,1,2-1,.29.29,0,0,0,.29-.26c0-.15.15-.26.36-.26a.47.47,0,0,0,.46-.26,1.61,1.61,0,0,1,1-.41c.8-.16.86-.13.68.39-.26.83.28.7,2-.5s2.13-1.32,1.45-.56c-.26.25-.36.56-.26.64.26.29,1.12.21,1.12-.08s.2-.25.46-.25a2.38,2.38,0,0,0,1.14-.65,2.74,2.74,0,0,1,.93-.65c.16,0,.31-.18.42-.39a.57.57,0,0,1,.46-.38,1.2,1.2,0,0,0,.73-.52,1.12,1.12,0,0,1,.67-.52,1.5,1.5,0,0,0,.75-.52c.36-.39.57-.44,1-.23s.52.28,0,.78a1.88,1.88,0,0,1-.93.49c-.23,0-.33.1-.26.26s0,.26-.1.26-.29.18-.29.38-.23.39-.64.39c-.65,0-.91.6-.42.88s1.06-.1,1.06-.52c0-.2.24-.36.52-.36s.52-.1.52-.21.44-.46,1-.77c1.35-.75,2.64-1.87,2.64-2.28,0-.21.24-.36.52-.36a.74.74,0,0,0,.67-.39c.11-.21.26-.39.39-.39a6.43,6.43,0,0,0,1.5-1.29,6.81,6.81,0,0,1,1.53-1.3.49.49,0,0,0,.39-.33c.08-.24.18-.24.49,0s.49.26.83-.08a1.4,1.4,0,0,0,.41-.67c0-.13.19-.23.39-.23s.39-.13.39-.26.23-.26.52-.26.52-.13.52-.26a.24.24,0,0,1,.25-.26c.29,0,0,.83-.36,1.09-.18.13-.18.29.05.52s.31.39,2.15-1.81a2.22,2.22,0,0,0,.49-.81.91.91,0,0,1,.34-.49c.23-.21.34-.08.36.49,0,.39,0,.81-.2.88a3.61,3.61,0,0,0-.62,1.07c-.21.49-.5.88-.63.88s-.28.18-.28.38.13.39.26.39a.26.26,0,0,0,.26-.26.26.26,0,0,1,.26-.26.24.24,0,0,1,.2.31c-.15.68,1.22.52,1.92-.23a15,15,0,0,1,1.47-1.37c.44-.36.81-.78.81-1s.1-.33.23-.33.34-.26.44-.57a2.66,2.66,0,0,1,.54-1,1.17,1.17,0,0,0,.26-1,1,1,0,0,1,.11-.75,1.69,1.69,0,0,0,.23-1c0-.62.13-.88.39-.88.54,0,.49-.44-.08-.57-.39-.1-.47-.31-.36-1,.05-.46.26-.8.49-.8a.25.25,0,0,0,.26-.34c-.05-.15-.49-.31-1-.31a1.87,1.87,0,0,1-1.21-.31c-.21-.21-.24-.34-.08-.34s.28-.23.28-.51-.1-.52-.26-.52a.28.28,0,0,1-.25-.26q0-.27.54,0a.71.71,0,0,1,.39.93c-.21.78.1.8.72.08a1.26,1.26,0,0,0,.31-1.09,1.57,1.57,0,0,1,.11-1,3.65,3.65,0,0,0,0-1.73,3,3,0,0,1,1-3.16,3.14,3.14,0,0,0,.8-1.21c0-.21.1-.37.23-.37s.31-.28.39-.64.31-.57.49-.52c.44.18.88-.18,1.19-.91.18-.46.26-.52.26-.2a.48.48,0,0,0,.44.46c.57,0,2.25-1.78,2.07-2.22a.25.25,0,0,1,.24-.37c.2,0,.38-.13.38-.26s.24-.25.5-.25c.67,0,.93-.44.51-.94-.28-.33-.26-.46.11-.64a1,1,0,0,0,.44-.7,1.94,1.94,0,0,1,1.27-1.35c.12,0,.28-.15.36-.34s.23-.15.52.21c.38.52.41.49.69-.23a2,2,0,0,0,.16-1.11c-.08-.19.1-.44.36-.6a1.06,1.06,0,0,0,.52-.85c0-.55.78-1.48,1.24-1.48s1.27-1,1.94-2.07c.39-.65.7-1,.7-.85,0,.41.68.44.93,0,.11-.15,0-.44-.25-.62s-.34-.36-.19-.49.29-.1.29,0,.23,0,.52-.13a.94.94,0,0,0,.51-.65,1.77,1.77,0,0,1,.47-.88c.93-1,1.35-1.71,1.35-2.28,0-.36.15-.59.38-.59s.39-.23.39-.52.13-.44.34-.36a.76.76,0,0,0,.72-.31c.26-.34.29-.47.06-.55-.42-.15.15-1.11.64-1.11.21,0,.31-.15.24-.36s.33-.88,1-1.61a6.43,6.43,0,0,0,1.13-1.45,2,2,0,0,1,.52-.72,1.77,1.77,0,0,0,.52-1c0-.28.13-.51.26-.51s.26-.16.26-.34a2.94,2.94,0,0,1,.77-1.06,3,3,0,0,0,.78-1,4.07,4.07,0,0,1,.93-1.2,15.1,15.1,0,0,0,1.63-2,18.57,18.57,0,0,1,1.35-1.71,16.1,16.1,0,0,0,1.42-1.71c.42-.54.83-1,.91-1.11a2.77,2.77,0,0,0,.65-2.38c-.21-.57-.16-.83.18-1.16a13.39,13.39,0,0,0,2-2.31c0-.13.18-.36,1.42-1.76a11.08,11.08,0,0,0,1.17-1.45c.21-.31.7-.93,1.09-1.4a4,4,0,0,0,.72-1,2.66,2.66,0,0,1,.62-.9c2.12-2.36,2.49-2.88,2.49-3.5s.1-.64.44-.51.36.05.26-.11.23-.72.72-1.27a5.42,5.42,0,0,0,.91-1.21c0-.11.28-.31.64-.44s.65-.36.65-.52a5.51,5.51,0,0,1,1.17-1.5,5,5,0,0,0,1.16-1.53.32.32,0,0,1,.29-.34c.33,0,.82-.49,1.21-1.21.26-.44.24-.62,0-.78s-.52-1.11-.18-1.11c.13,0,.23-.21.26-.47s.08-.31.16-.13c.2.55,1.13.39,1.29-.18.08-.28.28-.52.47-.52a.65.65,0,0,0,.51-.51c.08-.29.29-.52.42-.52s.2.1.1.23.21.23.62.23c.62,0,.78-.15.86-.75s0-.75-.5-.75c-.33,0-.59.11-.59.21s-.31.36-.67.52c-.83.39-.63,0,.46-.93a2.08,2.08,0,0,0,.73-1.14,6.41,6.41,0,0,1,2.38-2.54c.1,0,.21-.18.21-.39s.18-.36.64-.23.65.05.65-.13a.31.31,0,0,0-.31-.28c-.34,0,2.87-3.09,3.23-3.11.11,0,.19-.18.19-.39s.13-.39.25-.39a1.88,1.88,0,0,0,.86-.59,10.62,10.62,0,0,1,1.32-1c.57-.39.65-.54.39-.85-.39-.47-1-.47-1,0a.4.4,0,0,1-.39.39.61.61,0,0,0-.54.39.66.66,0,0,1-.5.39,2,2,0,0,0-.93.65c-.8.82-1.09.82-.7,0,.16-.37.39-.65.5-.65s.28-.23.36-.52a.69.69,0,0,1,.54-.52c.21,0,.36-.23.36-.51,0-.83-.7-.63-1.78.51a7,7,0,0,1-1.12,1c-.07,0-.13-.29-.1-.62s.1-.57.18-.52c.31.18,1.27-.73,1.27-1.22a.45.45,0,0,1,.41-.49c.21,0,.32-.13.24-.26s0-.26.23-.26.49-.31.57-.72c.21-.8.52-1.09,1.32-1.09.39,0,.52-.13.41-.46a1,1,0,0,1,.29-.81,1.16,1.16,0,0,0,.41-.7c0-.54.44-.44.6.16.21.85.77.62.57-.23-.11-.55-.05-.78.26-.91a1,1,0,0,1,.7,0c.31.18,1.86-1.42,1.6-1.68-.1-.08-.23,0-.28.15-.16.47-.52.42-.7,0-.11-.26.13-.52.7-.75s.67-.39.46-.39-.26-.15.08-.67c1.06-1.63.15-1.55-1.42.13a6.9,6.9,0,0,1-1.48,1.29c-.16,0-.36.24-.44.52s-.28.52-.41.52a2.13,2.13,0,0,0-.88.67c-.37.39-.65.57-.65.42a31.25,31.25,0,0,1,4.92-5,2,2,0,0,0,.77-.57c.29-.31.52-.44.52-.31a1,1,0,0,1-.31.56c-.41.42-.21.52.75.39.65-.1.86-.28,1-.88s.26-.75.73-.59A1.69,1.69,0,0,1,582,77c.13.18.41.06.83-.33s.59-.7.36-1.06a.67.67,0,0,0-.7-.34c-.36.13-.36.1,0-.21s.91-1.52.57-1.52-1.11.69-1.11,1a.32.32,0,0,1-.34.29c-.18,0-.54.28-.8.65a1.78,1.78,0,0,1-.7.64c-.49,0-.21-.57.75-1.52s1.09-1.51.49-1.87c-.13-.1-.13-.23.06-.33s.33.1.44.49.31.65.46.65c.34,0,1.45-1.38,1.45-1.82,0-.13.18-.26.39-.26.49,0,.49.29,0,.94s-.49.88,0,.88c.21,0,.39.1.39.26a.25.25,0,0,0,.23.25c.13,0,.18-.25.1-.54s0-.52.34-.39c.65.21,1.24-.21,1.06-.72-.1-.26,0-.42.18-.42s.34-.2.29-.46,0-.29,0-.13c.15.46.85.41.85-.05,0-.21-.13-.39-.28-.39s-.21-.18-.13-.39c.23-.65-.52-.75-1.11-.16a1.84,1.84,0,0,0-.55,1.07c0,.33-.13.46-.39.36-.64-.26-.2-1.06,1.3-2.54s2-2.48,1.37-2.48a5.9,5.9,0,0,0-1.5,1.16,5.53,5.53,0,0,1-1.42,1.17,1.88,1.88,0,0,0-.78.41c-.44.34-.47.41-.13.62s.26.26-.23.26c-.34,0-.55.08-.47.18.29.29-.78.86-1.24.7a.51.51,0,0,0-.65.18c-.13.18-.31.26-.41.16s.33-.75,1-1.43a5.69,5.69,0,0,0,1.21-1.52c0-.16.21-.24.49-.16.6.16,2.36-1.58,2.36-2.36,0-.51,0-.51.36-.07s.39.44.57-.13a1.89,1.89,0,0,1,.68-.93.73.73,0,0,0,.31-.91c-.13-.47-.11-.52.18-.23s.46.18,1-.39a6.46,6.46,0,0,1,1.26-1.11,3.62,3.62,0,0,0,1-1c.34-.52.34-.59,0-.75a1.55,1.55,0,0,0-1,.13,8.84,8.84,0,0,1-1.06.41c-.39.13-.44.32-.31,1.07.18,1-.21,1.21-.85.57-.26-.26-.49-.11-1.22.69a4.52,4.52,0,0,0-.88,1.22c0,.13-.16.23-.36.23a1.47,1.47,0,0,0-.86.6,3.91,3.91,0,0,1-1.16.88,3,3,0,0,0-1.14,1c-.44.67-.47.67-.67.13-.24-.7-.73-.7-.91,0-.08.29-.28.52-.47.52s-.77.6-1.32,1.29a5.32,5.32,0,0,1-1.21,1.3,4,4,0,0,0-1.06.9c-.81.86-.86.86-.73.26.18-1-.41-.8-1.55.44-1.48,1.69-2.12,2.28-2.36,2.28a4.55,4.55,0,0,0-1.47,1.55c0,.11-.47.39-1,.68s-1,.64-1,.8-.11.34-.26.34a.31.31,0,0,0-.26.33c0,.49-.75,1.27-1.61,1.71-.41.21-.72.47-.72.6,0,.31-1,1.21-1.14,1.06s-.26.15-.39.54-.41.67-.57.67a1.54,1.54,0,0,0-.8.44c-.8.73-.57-.2.31-1.16,1.24-1.35.91-2.48-.62-2.2l-.8.16.59-.5c.47-.38.55-.64.42-1.34-.18-1-1.14-1.22-1.14-.31,0,.28.13.51.28.51s0,.21-.31.5-.54.57-.33.82a1.22,1.22,0,0,1,.07,1l-.18.65,0-.72c0-.47-.13-.68-.31-.55a.59.59,0,0,0-.16.65c.08.28,0,.49-.1.49s-.24.18-.24.39c0,.44-.64.52-.9.13a.32.32,0,0,0-.42-.13c-.13.1-.23,0-.23,0,0-.29,1-1.11,1.3-1.11a.26.26,0,0,0,.25-.26c0-.16-.18-.26-.38-.26s-.31-.16-.24-.39,0-.39-.13-.39,0-.28.37-.65a2.13,2.13,0,0,0,.64-1,.55.55,0,0,1,.34-.47c.23-.1.23-.2,0-.39s-.26-.36.2-.85c1.12-1.19,1.58-1.94,1.3-2.23s-.13-.36.15-.59a1.09,1.09,0,0,0,.39-.57,1.2,1.2,0,0,1,.34-.6c1.58-1.78,2-2.46,2-3.34a1.46,1.46,0,0,1,.47-1.08c.41-.34.41-.34-.05-.37s-.47,0,.05-.59.8-1.37.31-1.09a.8.8,0,0,1-.67-.08c-.34-.18-.24-.36.64-1.06a3.17,3.17,0,0,0,1.06-1.14c0-.18.26-.44.6-.57.62-.28,1-1.42.39-1.42-.18,0-.08-.23.26-.52a2.17,2.17,0,0,0,.67-.82c.08-.6.41-1,.78-.83s.36-.08.36-.52-.16-.67-.44-.7-.34-.05,0-.16c.52-.2,1-.75,1-1.08s.85-.36,1.24,0,1.09-.13,1.09-.7a.66.66,0,0,1,.39-.49c.54-.2.49-.75-.06-.57-.31.11-.23,0,.19-.38,2.84-2.41,3.59-3.42,2.71-3.78-.36-.13-.36-.21,0-.63.54-.59.88-.62.88-.1,0,.21.1.39.26.39s.15-.23,0-.65-.18-.7.21-.8c.23-.08.72-.28,1.06-.44l.59-.31-.59-.16c-.42-.13-.47-.18-.16-.2s.44-.16.44-.31a.93.93,0,0,1,1.32-.68c.67.42,2.38-1.27,2.2-2.15-.08-.49.08-.88.65-1.5a3.36,3.36,0,0,0,.75-1.06.32.32,0,0,1,.36-.28.63.63,0,0,0,.52-.47,3,3,0,0,1,.91-1l.75-.55-.26.83c-.16.47-.39,1.09-.52,1.42-.18.52-.13.6.23.52s.47-.2.47-.33a8.67,8.67,0,0,1,2.33-3.08,3,3,0,0,0,1-1.2c.23-.9-.8-.62-1.94.57-.57.63-.91.86-.75.55.39-.75.36-.86-.23-.86a1.07,1.07,0,0,0-.78.52,1,1,0,0,1-.67.52c-.29,0-.34-.16-.24-.52.21-.62-.41-.72-.9-.13-.26.29-.23.47.1.78a.71.71,0,0,0,.67.26c.5-.31.24.26-.38.85s-1.43.57-.91-.08c.34-.38.16-.9-.31-.9a21.64,21.64,0,0,0-3.57,3.65c0,.1-.24.23-.52.31a.67.67,0,0,1-.8-.36c-.31-.6,0-1.27.31-.73.18.31.26.31.54,0s.26-.39,0-.46c-.39-.13-.18-.73.62-1.79a2.85,2.85,0,0,0,.59-1.24.7.7,0,0,1,.52-.6c.29-.08.52-.23.52-.34s.26-.25.6-.31.51-.18.49-.31.07-.33.31-.46.36-.34.28-.49.13-.63.49-1.09c.88-1.14.88-1.58,0-1.37-.59.15-.64.13-.49-.39.44-1.4.8-1.92,1.3-1.92s.51-.2.59-1.16a2.51,2.51,0,0,1,.86-1.94,3.16,3.16,0,0,0,.75-1.09,1.08,1.08,0,0,1,.39-.6,1.26,1.26,0,0,0,.38-.8c0-.31.29-.62.73-.8a4.71,4.71,0,0,0,1.16-.78c.49-.49.6-1.24.13-1.24-.15,0-.1-.18.13-.47a1.52,1.52,0,0,0,.44-.9c0-.23.13-.44.26-.44s.26-.21.26-.49a1.24,1.24,0,0,1,.39-.81c.59-.49.39-1.42-.26-1.37a.8.8,0,0,1-.73-.33c-.28-.52-.9-.47-1.24.12a.73.73,0,0,1-.8.34c-.36-.08-.44,0-.31.31s.26.42.41.42a1.3,1.3,0,0,1,.62.38c.37.34.31.52-.38,1.56a7.78,7.78,0,0,0-.81,1.4c0,.12-.18.31-.41.38-.62.24-.75.18-.41-.15s.41-1.24,0-1.24a2.14,2.14,0,0,0-.93.67c-.39.41-.8.62-1.09.54-.54-.13-1.32.24-1.32.62a1.34,1.34,0,0,1-.41.7c-.39.36-.39.44,0,.7s.57,1.17.13,1.17c-.16,0-.24.18-.13.38s0,.39-.24.39-.38-.13-.38-.26c0-.41-.5-.28-1,.26a1.64,1.64,0,0,1-.65.52c-.31,0,.11-.85.75-1.55a2.1,2.1,0,0,0,.6-1.09.86.86,0,0,1,.33-.65c.55-.33,1.25-1.58,1-1.76s-1.29.86-1.29,1.35a.32.32,0,0,1-.29.34c-.39,0-.9.56-1.11,1.24-.1.31-.31.57-.44.57s-.23.15-.23.36a.53.53,0,0,1-.24.47c-.13,0-.28.23-.33.44a7.74,7.74,0,0,1-1.69,2.27c-.64.68-.77,1.27-.31,1.43s0,1.24-.46,1.24c-.23,0-.34.16-.23.39s0,.39-.34.39a.67.67,0,0,0-.62.31c-.11.26-.21.23-.42,0s-.33-.32-.59-.06-.26.39.05.57.28.26-.13.26-1.68.8-1.68,1.11a4.76,4.76,0,0,1-1.74,1.74.33.33,0,0,0-.33.31,2.27,2.27,0,0,1-.65,1l-.65.59V37.7c0-.54-.13-.67-.59-.67-.83,0-1-.18-.7-1.06.21-.73.18-.76-.47-.57-.93.23-2.09,1.63-1.34,1.63.15,0,.26.26.26.54,0,.54,0,.54.67.1.88-.57,1-.38.36.47a2.56,2.56,0,0,0-.52.93.29.29,0,0,1-.28.29c-.29,0-1,.62-1,.88s1,.13,1.29-.26a6.23,6.23,0,0,1,.81-.65c.44-.23.44-.15-.06.67s-.72.91-1.24.91a1,1,0,0,0-1,.57l-.28.59v-.59c0-1-1.22-.47-1.66.78-.31.85-.65.51-1.66-1.56-.07-.2-2.09,1-2.66,1.66l-.65.7.73-.18c.51-.13.69-.08.69.23a.4.4,0,0,0,.39.39c.21,0,.39.08.39.18a21.55,21.55,0,0,1-3.93,3.6c-.26.08-.42.26-.34.39s0,.23-.1.23-.29.18-.29.39-.18.36-.57.26-.88.1-1.71.88c-.62.59-1.06,1.16-.95,1.32s0,.25-.13.25-.26.16-.19.34-.1.49-.36.65a1,1,0,0,0-.49.67c0,.34-.52.67-1.06.67-.16,0-.18-.23-.1-.51.25-.81-.29-.62-1.4.51a3.52,3.52,0,0,1-1.53,1,2.55,2.55,0,0,0-1.29.88,2.71,2.71,0,0,1-1.53,1c-.39.06-.73.24-.73.42a3.82,3.82,0,0,1-1,1.29A10,10,0,0,0,542,59.57c-.7,1.12-2.58,3.08-3,3.08-.18,0-.34.29-.34.65a1.06,1.06,0,0,1-.52.91c-.52.28-.64.13-.54-.73.05-.39.05-.39-1,0-.46.15-.78.36-.7.49s-.18.31-.52.46-.64.42-.64.57-.34.18-.78.08-.78,0-.78.1a1.6,1.6,0,0,1-.49.75c-.9,1-1.11,1.61-.64,1.87s.41.28,0,.83c-.49.72-1.47,1.42-1.47,1.06a.29.29,0,0,1,.25-.29c.16,0,.26-.23.26-.49a.66.66,0,0,1,.34-.62c.18-.08.13-.15-.13-.15s-.47.07-.47.2a3.22,3.22,0,0,1-.69,1,8.23,8.23,0,0,0-1.76,2.64,3,3,0,0,1-1.3,1.27c-.49.23-.9.62-.9.85a1.59,1.59,0,0,1-.52.86.85.85,0,0,0-.36.83,1,1,0,0,1-.39.93,1.91,1.91,0,0,0-.55.75c0,.15-.18.26-.38.26a.4.4,0,0,0-.39.38,1.43,1.43,0,0,1-.52.83,1.49,1.49,0,0,0-.52.91.7.7,0,0,1-.52.59.75.75,0,0,0-.51.65.57.57,0,0,1-.57.57c-.34.05-.57.23-.55.39s-.13.36-.39.44a4.15,4.15,0,0,0-1.6,2.28.65.65,0,0,1-.41.57c-.26.1-.34.33-.24.64s0,.55-.26.65a.6.6,0,0,0-.38.47,1.43,1.43,0,0,1-.44.77,3.91,3.91,0,0,0-1.12,1.38A4.14,4.14,0,0,1,515,90c-.54.57-.65.6-.49.18.72-1.94.77-3.21.08-2.51-.5.49-.68.36-.52-.34,0-.36.2-.64.33-.64s.24-.21.24-.47a1.94,1.94,0,0,1,.44-1l.41-.51-.18.51a11.57,11.57,0,0,0-.34,1.22c-.13.59-.05.72.39.72s.57-.23.7-1c.1-.57.29-1,.41-1,.37,0,.29-1-.07-1.11s-.21-.34.15-1.06c.29-.52.42-1,.34-1.09s.08-.52.36-.9c.52-.73.62-2.28.13-2.1s-.7-.57-.36-.75a.53.53,0,0,0,.1-.62c-.15-.44-.21-.44-.67,0-.62.54-.67.2-.13-.81a3.58,3.58,0,0,0,.39-1.34c0-.49-.11-.57-.52-.44s-.52,0-.52-.1-.18-.29-.39-.29-.38.23-.38.52-.11.52-.26.52-.18-.19-.11-.39a.79.79,0,0,0-.15-.78c-.26-.31-.26-.46,0-.78a.76.76,0,0,0,.18-.59.59.59,0,0,1,.08-.57.59.59,0,0,0,0-.7.48.48,0,0,1,0-.7c.23-.28.23-.65,0-1.45s-.21-1.19,0-1.37c.31-.41.31-2.77,0-2.77-.13,0-.44.47-.65,1-.44,1.11-.67,1.24-1.27.64a1.16,1.16,0,0,1-.21-1.24c.11-.44.24-.67.29-.52a.55.55,0,0,0,.41.34c.36,0,.47-2.64.13-2.87a9.86,9.86,0,0,1,.16-3c.33-2.46.33-2.85,0-3.11a.86.86,0,0,1-.37-.59.32.32,0,0,0-.36-.29c-.59,0-.93,2.23-.41,2.75.31.31,0,3.47-.29,3.47-.13,0-.23.23-.23.51s-.1.52-.26.52c-.34,0-.34-1.11,0-1.45s0-2.17-.28-2.17c-.13,0-.24.28-.24.62a1,1,0,0,1-.28.8,1,1,0,0,0-.21.73,2.52,2.52,0,0,1-.1.95,12.83,12.83,0,0,0-.29,1.92,6,6,0,0,1-.39,1.81,4.38,4.38,0,0,0-.38,1.5,2.85,2.85,0,0,1-.44,1.37c-.34.24-.11-2.38.26-2.82a1,1,0,0,0,.25-.72,3.46,3.46,0,0,1,.13-1,2.68,2.68,0,0,0-.07-1.37c-.24-.57-.21-.7.1-.7.49,0,.54-1.45.08-1.65-.26-.13-.26-.18,0-.31.51-.26.39-1.14-.21-1.14-.41,0-.52.18-.52.85,0,.91-.52,2.25-.85,2.25-.11,0-.08-.23.08-.49a5.75,5.75,0,0,0,.25-1.81,2.81,2.81,0,0,1,.39-1.68c.34-.31.34-.49.08-1.12a3,3,0,0,0-.54-.88c-.13-.07,0-.23.31-.31.49-.13.54-.26.39-1.27a4.64,4.64,0,0,0-.44-1.44c-.19-.24-.13-.47.18-.78.54-.62.51-1.24,0-1.61s-.39-.28.13-.18.57,0,.57-.36a.73.73,0,0,0-.39-.65.67.67,0,0,1-.39-.54c0-.21.11-.31.24-.23.31.2,1.58-.44,1.58-.78s-.57-.62-1.2-.62a.38.38,0,0,0-.36.39.38.38,0,0,1-.36.39c-.54,0-.67.93-.21,1.57.31.44.31.55,0,.44a1.34,1.34,0,0,0-1,.34c-.5.39-.63.78-.73,2.1a5.39,5.39,0,0,1-.36,1.91.8.8,0,0,0-.08.73.86.86,0,0,1-.1.75,4,4,0,0,0-.39,1.42c-.16,1.19-.34,1.56-.6,1.27a4.68,4.68,0,0,1,.24-1.89,6,6,0,0,0,.28-1.94c-.23-.39-.57-.26-.7.21s-.13.31-.15-.13.1-.57.23-.57.26-.31.26-.68a1.42,1.42,0,0,1,.44-1c.31-.24.46-.76.49-1.58s.08-1.35.08-1.43.26-.23.54-.31a.67.67,0,0,0,.52-.57c0-.28-.13-.39-.39-.28s-.39,0-.39-.24.24-.38.52-.38.52-.16.54-.34.06-.57.08-.91,0-.64-.15-.72c-.34-.21-1.25.8-1.25,1.4a2.26,2.26,0,0,1-1.63,1.6c-.59,0-.62.13-.8,2.59-.15,2-.41,3.16-.41,1.86,0-.72-.78-.75-1,0-.08.29-.26.52-.39.52s-.18.18-.1.41a.88.88,0,0,1-.13.78,6.17,6.17,0,0,0-.36,2.15c-.11,1.68-.08,1.84.38,1.84.29,0,.52-.13.52-.31s.08-.24.16-.13c.28.28.26,2.35-.06,4.45-.18,1.14-.31,1.68-.33,1.22,0-.65-.13-.83-.55-.83s-.51.15-.51.33c0,.75-.65,1.74-1.06,1.61a.73.73,0,0,0-.76.26c-.44.52-.77.49-.72-.08.13-1.6-.08-3.42-.39-3.42s-.36.31-.39.81a2.08,2.08,0,0,1-.33,1.16c-.24.26-.24.44,0,.73.39.44-.05,1.7-.6,1.7s-1.34,1.3-1.4,2.31-.26,1.32-.57.8a.5.5,0,0,1,0-.62c.34-.34.34-.93,0-.93-.13,0-.25.18-.25.39s-.13.38-.29.38-.21.29-.1.78.07.78-.11.78-.28.23-.28.49-.1.54-.26.59-.18.34-.08.68.29.54.49.46.37,0,.37.34a.69.69,0,0,1-.37.62,1.16,1.16,0,0,0-.46.85c-.11,1-.65,1.09-.83.19a23.28,23.28,0,0,1,0-5.39c.08-.85.19-2.43.21-3.49,0-1.66,0-1.94-.39-2s-.46.08-.46.7c0,.44-.11.8-.24.8-.38,0-.51,1-.23,1.84a1.5,1.5,0,0,1-.08,1.42c-.49,1-.7.31-.54-1.86.08-1.25,0-1.92-.16-1.92s-.33.21-.38.44c-.11.44-.13.44-.16,0a.5.5,0,0,0-.54-.44c-.44,0-.52.18-.55,1.09a29.27,29.27,0,0,1-.38,4.58c-.24.26-.26-.26-.11-3.08a12.54,12.54,0,0,0-.08-3.24c-.33-.38-.85.5-1.06,1.74-.13.8-.26,1-.46.78a3.72,3.72,0,0,1-.24-2.08,13,13,0,0,0-.05-3.28,1.86,1.86,0,0,1,.11-1,15.35,15.35,0,0,0,.25-4c-.05-1-.51-.65-.69.47-.11.57-.26,1-.39,1s-.26-.28-.36-2.59c-.08-1.89-.13-2.33-.37-2.33s-.31.39-.36.83L485,55l0-.86c-.05-.85.41-1.6,1-1.6s.34-.52-.08-.68a1.71,1.71,0,0,1-.65-.9c-.31-.91-1.06-1-1.06-.16a1,1,0,0,1-.62.91c-.54.23-.59.39-.49,1.66.08,1,.05,1.26-.16,1-.36-.52-.54-.23-.77,1.22l-.21,1.24-.1-1.5a3.63,3.63,0,0,1,.1-1.66,2.25,2.25,0,0,0,.18-1.14c0-.72-.1-1-.39-1s-.38.11-.38.26c0,.52-.42.23-.76-.57-.25-.57-.28-.93-.1-1.21a.75.75,0,0,0,0-.88c-.21-.34-.19-.63.18-1.25a4,4,0,0,0,.44-1.52,1.34,1.34,0,0,1,.26-.91c.2-.13.18-.29,0-.54s-.21-.55.1-1.17a1.29,1.29,0,0,0,.15-1.27c-.33-.59-.51-3.62-.23-3.62s.23-.18.23-.39c0-.41-1.11-.8-1.52-.52-.18.11-.29-.13-.29-.62s-.13-.8-.41-.8-.39.15-.26.65.08.64-.36.64-.52-.18-.52-.77-.13-.78-.31-.78-.23-.08,0-.23c.42-.26.44-.93.16-3.73-.13-1.27-.34-2.1-.54-2.17s-.31-.52-.29-1.17a2,2,0,0,0-.28-1.4c-.29-.31-.29-.39,0-.51.49-.19.54-.81.1-.94s-.28-3.72.18-4.68c.31-.65.31-.75-.05-.88s-.34-.21.16-.36.54-.39.46-1.2c0-.64-.18-1-.44-1s-.36-.23-.33-.65c.28-3,.25-3.34-.11-3.46-.54-.21-.59-.21-.59.23s-.42.52-.65.13.44-1.3.88-1.22a.47.47,0,0,0,.49-.41c.05-.26-.08-.44-.31-.44s-.41-.11-.41-.24C476.34,11.61,475.12,11.43,474.81,11.74Z" transform="translate(-8 -7)"/><path d="M496.53,36.46a1.13,1.13,0,0,1-.24.7,17.19,17.19,0,0,0-.54,3.23,21.73,21.73,0,0,1-.52,3.5,23.09,23.09,0,0,0-.54,5.9c.34.33.8,0,.8-.6a.94.94,0,0,1,.21-.62,28.33,28.33,0,0,0,.7-4.74,27.84,27.84,0,0,1,.72-4.76c.31-.21,0-3.08-.36-3.08C496.63,36,496.53,36.2,496.53,36.46Z" transform="translate(-8 -7)"/><path d="M593.73,65a2.05,2.05,0,0,1-1.12.29c-.51,0-.82.08-.64.15.44.16-.18.83-.65.68S589.2,67.52,589.2,68c0,.18-.13.34-.26.34s-.39.28-.52.65-.36.64-.52.64-.26.21-.26.47.31.57,1,.8c1.12.31,1.84.18,1.84-.39a.38.38,0,0,1,.39-.36c.44,0,.52-.67.13-.91a.66.66,0,0,0-.65.13c-.52.42-1,.08-.57-.41.78-.93,1.35-1.4,1.43-1.14.18.49.95.26,1.73-.49,1.11-1.09,1.42-1.5,1.42-1.94S593.93,64.62,593.73,65Z" transform="translate(-8 -7)"/><path d="M565.51,72c-.08.29-.26.52-.39.52-.41,0-1,.8-1,1.32a3.06,3.06,0,0,1-.65,1.37c-1,1.32-.88,1.61.78,1.63.8,0,1.42-.08,1.42-.2A1.24,1.24,0,0,1,566,76a1.44,1.44,0,0,0,.39-.78.37.37,0,0,0-.39-.36c-.6,0-.47-.47.39-1.37s1.06-1.89.39-1.66a.41.41,0,0,1-.52-.08C566,71.3,565.69,71.43,565.51,72Z" transform="translate(-8 -7)"/></svg>